<svg width="229" height="156" viewBox="0 0 229 156" fill="none" xmlns="http://www.w3.org/2000/svg">
<g filter="url(#filter0_d_14_817)">
<path d="M75.3283 34.8981C75.3283 35.4966 75.428 35.9954 75.6275 36.3944C75.827 36.6937 75.827 37.1426 75.6275 37.7411C75.7273 38.1401 75.8769 38.4893 76.0764 38.7886C76.2759 38.9881 76.3258 39.2375 76.2261 39.5367C75.7273 40.634 75.5278 41.3822 75.6275 41.7812C75.7273 42.0805 75.7273 42.5294 75.6275 43.128C75.428 43.4272 75.2285 43.8761 75.029 44.4747C74.9292 45.0732 74.9791 45.6219 75.1786 46.1206C75.0789 46.5197 74.9791 46.8688 74.8794 47.1681C74.7796 47.4674 74.7297 47.8664 74.7297 48.3652C75.428 50.4601 75.0789 51.9564 73.6823 52.8542C73.383 53.752 73.2334 54.6997 73.2334 55.6973C73.0339 56.0963 72.6847 56.2459 72.1859 56.1462C71.6871 56.0464 71.2881 56.0963 70.9889 56.2958C71.0886 56.7946 71.1385 57.4929 71.1385 58.3907C71.0387 59.1887 70.7395 59.7873 70.2407 60.1863C69.8417 60.4856 69.5424 61.0342 69.3429 61.8323C67.4475 63.0294 65.8015 64.0768 64.4049 64.9746C63.8064 67.0695 62.5594 68.5658 60.6641 69.4636C59.3672 69.5634 58.7188 69.8128 58.7188 70.2118C58.22 70.4113 57.7711 70.561 57.3721 70.6607C57.0728 70.6607 56.6738 70.7605 56.175 70.96C54.978 70.6607 54.2797 70.6607 54.0801 70.96C53.9804 71.2593 53.7809 71.5087 53.4816 71.7082C52.3843 71.9077 51.4865 72.0573 50.7882 72.1571C50.1896 72.2568 49.641 72.4065 49.1422 72.606C48.5437 72.5062 48.0948 72.3067 47.7955 72.0074C47.596 71.6084 47.2967 71.3091 46.8977 71.1096C46.3989 71.2094 46.0498 71.4089 45.8502 71.7082C45.6507 71.9077 45.3515 72.1072 44.9524 72.3067C44.4537 72.3067 43.9549 72.3566 43.4561 72.4563C42.9573 72.4563 42.4585 72.4563 41.9597 72.4563C41.6605 72.2568 41.3113 72.1072 40.9123 72.0074C40.613 71.8079 40.3138 71.6084 40.0145 71.4089C39.0169 71.7082 38.3685 72.0074 38.0692 72.3067C37.8697 72.5062 37.5206 72.606 37.0218 72.606C36.0242 72.4065 34.9768 72.3067 33.8795 72.3067C32.7822 72.3067 31.8345 72.5062 31.0364 72.9052C31.4354 73.404 31.5352 74.0524 31.3357 74.8505L30.5875 76.9454C30.8868 77.7434 31.0364 78.342 31.0364 78.741C31.0364 79.0403 31.0364 79.3395 31.0364 79.6388C31.5352 80.9356 31.5851 81.8833 31.1861 82.4819C30.8868 82.9806 30.6374 83.5293 30.4379 84.1278C30.2384 84.3273 29.989 84.5767 29.6897 84.876C29.4902 85.0755 29.4403 85.4247 29.5401 85.9234C29.7396 86.123 30.0389 86.2227 30.4379 86.2227C30.9367 86.2227 31.2858 86.3724 31.4853 86.6716C31.6848 87.5694 31.5851 88.3675 31.1861 89.0658C30.8868 89.6643 30.7371 90.4624 30.7371 91.4599C30.8369 92.1582 30.9865 92.9064 31.1861 93.7044C31.3856 94.5025 31.5352 95.3005 31.635 96.0986C31.4354 96.4976 31.1861 96.8967 30.8868 97.2957C30.5875 97.5949 30.3381 97.8942 30.1386 98.1935C29.9391 98.4928 29.9391 98.792 30.1386 99.0913C30.3381 99.2908 30.4379 99.5402 30.4379 99.8395C30.1386 101.436 30.1885 102.533 30.5875 103.131C31.0863 103.73 31.4354 104.428 31.635 105.226C31.5352 105.526 31.4354 105.775 31.3357 105.974C31.3357 106.174 31.2858 106.473 31.1861 106.872C31.0863 107.172 31.0863 107.471 31.1861 107.77C31.3856 108.069 31.3856 108.319 31.1861 108.518C30.1885 109.316 30.0389 110.164 30.7371 111.062C31.2359 111.76 31.4853 112.259 31.4853 112.558C31.5851 112.758 31.635 112.957 31.635 113.157C31.4354 114.454 31.3856 115.302 31.4853 115.701C30.6873 116.399 30.1386 116.848 29.8393 117.047C29.6398 117.347 29.4403 117.596 29.2408 117.796C28.9415 119.092 28.3929 119.691 27.5948 119.591C26.7968 119.591 26.1982 119.791 25.7992 120.19C26.0985 121.586 26.0985 122.335 25.7992 122.434C25.4999 122.634 25.2505 122.883 25.051 123.182C24.8515 125.277 24.253 126.574 23.2554 127.073C22.2579 127.572 21.4598 128.37 20.8613 129.467C20.3625 130.066 20.2128 130.415 20.4124 130.515C20.6119 130.714 20.7116 130.963 20.7116 131.263C20.7116 131.961 20.5121 132.36 20.1131 132.46C19.7141 132.56 19.2652 132.709 18.7664 132.909C18.4671 133.108 18.2676 133.407 18.1678 133.807C18.1678 134.206 18.118 134.605 18.0182 135.004C17.8187 135.303 17.6192 135.602 17.4197 135.901C17.2202 136.201 17.0206 136.5 16.8211 136.799C16.7214 137.098 16.6715 137.498 16.6715 137.996C16.6715 138.495 16.6715 138.994 16.6715 139.493C16.3722 140.69 16.1727 141.388 16.073 141.588C16.073 141.887 16.1228 142.136 16.2226 142.336C16.1228 143.333 16.1727 143.982 16.3722 144.281C16.5717 144.68 16.7214 145.129 16.8211 145.628C16.4221 146.426 15.9732 146.575 15.4744 146.077C14.9756 145.678 14.5766 145.279 14.2773 144.879C14.0778 145.079 14.028 145.328 14.1277 145.628C14.3272 146.027 14.3272 146.326 14.1277 146.525C12.9306 145.727 12.2323 144.879 12.0328 143.982C11.9331 143.184 11.5839 142.585 10.9854 142.186C10.8856 141.188 10.8856 140.59 10.9854 140.39C11.1849 140.291 11.3345 140.141 11.4343 139.942C11.2348 139.443 11.1849 138.794 11.2847 137.996C11.0851 137.498 10.8856 136.999 10.6861 136.5C10.5864 136.001 10.5365 135.403 10.5365 134.704C10.9355 133.407 11.135 132.56 11.135 132.161C11.2348 131.762 11.3844 131.462 11.5839 131.263C11.7834 131.163 11.9829 131.013 12.1825 130.814C12.0827 130.415 11.9331 130.016 11.7336 129.617C11.6338 129.317 11.6837 129.018 11.8832 128.719C12.2822 128.42 12.6314 128.27 12.9306 128.27C13.3297 128.27 13.6289 128.021 13.8284 127.522C13.7287 127.223 13.5292 127.023 13.2299 126.923C12.9306 126.824 12.7311 126.624 12.6314 126.325C12.2323 125.028 11.8333 124.18 11.4343 123.781C11.135 123.382 10.9355 122.833 10.8357 122.135C11.4343 121.137 11.8333 120.489 12.0328 120.19C12.2323 119.89 12.3321 119.442 12.3321 118.843C12.1326 118.644 11.8333 118.494 11.4343 118.394C11.135 118.394 10.9355 118.245 10.8357 117.945C10.9355 117.546 11.1849 117.047 11.5839 116.449C11.5839 115.252 11.6837 114.603 11.8832 114.504C11.5839 113.107 11.4343 111.76 11.4343 110.464C11.4343 109.067 11.6338 108.369 12.0328 108.369C11.534 107.271 11.3345 106.623 11.4343 106.423C11.6338 106.124 11.8333 105.825 12.0328 105.526C12.5316 105.426 12.7311 105.176 12.6314 104.777C12.6314 104.378 12.7311 103.929 12.9306 103.431C12.9306 102.333 12.781 101.336 12.4817 100.438C12.1825 99.5402 12.1326 98.5426 12.3321 97.4453C12.5316 96.9465 12.6314 96.2981 12.6314 95.5001C12.7311 94.702 12.6314 94.0037 12.3321 93.4052C12.6314 92.7069 12.781 92.0585 12.781 91.4599C12.382 90.6619 12.1326 90.0135 12.0328 89.5147C12.2323 89.1157 12.3321 88.6169 12.3321 88.0183C12.4319 87.4198 12.4319 86.8213 12.3321 86.2227C12.8309 84.7264 12.9805 83.8286 12.781 83.5293C12.5815 83.1303 12.382 82.7312 12.1825 82.3322C12.382 81.8334 12.5815 81.2848 12.781 80.6862C13.0803 80.0877 13.18 79.539 13.0803 79.0403C13.3795 77.4442 13.3795 76.4965 13.0803 76.1972C12.781 75.8979 12.4817 75.5488 12.1825 75.1498C12.2822 74.4515 12.3321 73.7532 12.3321 73.0549C12.3321 72.2568 12.4319 71.5585 12.6314 70.96C12.3321 69.9624 12.1825 68.8651 12.1825 67.668C12.9805 65.6729 13.5292 64.1766 13.8284 63.179C13.6289 62.78 13.2798 62.5306 12.781 62.4308C12.2822 62.2313 11.9331 61.8323 11.7336 61.2337C11.9331 60.735 12.1326 60.2362 12.3321 59.7374C12.6314 59.1389 12.6812 58.5403 12.4817 57.9418C12.8808 57.044 13.0304 56.5951 12.9306 56.5951C12.9306 56.4953 12.9306 56.3457 12.9306 56.1462C13.1301 54.9491 13.0803 54.1012 12.781 53.6024C12.5815 53.1036 12.3321 52.6547 12.0328 52.2557C12.2323 51.3579 12.4817 50.5598 12.781 49.8615C13.0803 49.1632 13.3297 48.3652 13.5292 47.4674C13.5292 46.37 13.4793 45.2727 13.3795 44.1754C13.2798 43.0781 13.1301 41.9309 12.9306 40.7338C12.9306 39.5367 12.9805 38.7886 13.0803 38.4893C13.2798 38.0903 13.2798 37.6912 13.0803 37.2922C13.0803 36.3944 12.9306 35.8457 12.6314 35.6462C12.4319 35.4467 12.2323 35.1474 12.0328 34.7484C12.0328 34.2496 12.1326 33.8506 12.3321 33.5513C12.5316 33.2521 12.6812 32.9029 12.781 32.5039C12.8808 32.0051 12.8309 31.6061 12.6314 31.3068C12.5316 30.9078 12.5815 30.5088 12.781 30.1097C12.382 29.5112 12.0827 28.8129 11.8832 28.0149C11.7834 26.9175 11.7834 26.1694 11.8832 25.7703C12.0827 25.3713 12.2323 24.9224 12.3321 24.4236C12.3321 23.9249 12.2822 23.4759 12.1825 23.0769C12.1825 22.6779 12.2323 22.2789 12.3321 21.8798C12.3321 21.0818 12.2323 20.3336 12.0328 19.6353C12.3321 18.3385 12.382 17.6402 12.1825 17.5404C11.9829 17.4407 11.8333 17.1913 11.7336 16.7923C11.6338 15.7947 11.4842 15.246 11.2847 15.1463C11.0851 15.0465 10.8856 14.8969 10.6861 14.6974C9.88806 13.9991 9.38928 13.6998 9.18977 13.7996C8.99026 13.7996 8.69099 13.7996 8.29196 13.7996C7.69342 13.1013 7.44403 12.7023 7.54379 12.6025C7.7433 12.403 7.84306 12.2035 7.84306 12.004C7.54379 11.6049 6.84549 11.3057 5.74817 11.1062C5.34915 10.9066 4.95012 10.8069 4.5511 10.8069C4.15207 10.7071 3.80292 10.5575 3.50365 10.358C2.60585 9.65969 2.00731 9.4103 1.70804 9.60981C1.40877 9.70957 1.05962 9.65969 0.660597 9.46018C0.560841 9.16091 0.461084 8.81176 0.361328 8.41273C0.261571 8.01371 0.261571 7.66456 0.361328 7.36529C0.560841 6.96627 0.909988 6.91639 1.40877 7.21566C1.90755 7.41517 2.35646 7.46505 2.75548 7.36529C3.45378 7.16578 4.20195 6.96627 5 6.76675C5.89781 6.56724 6.5961 6.76675 7.09488 7.36529C7.2944 7.16578 7.69342 7.01614 8.29196 6.91639C8.8905 6.71687 9.28952 6.86651 9.48904 7.36529C9.88806 7.16578 10.4367 7.01614 11.135 6.91639C11.8333 6.81663 12.4319 6.86651 12.9306 7.06602C14.2275 6.96627 14.9756 6.96627 15.1752 7.06602C15.3747 7.16578 15.5742 7.26554 15.7737 7.36529C16.3722 7.36529 16.9209 7.31541 17.4197 7.21566C18.0182 7.1159 18.6167 6.96627 19.2153 6.76675C19.8138 7.16578 20.3126 7.41517 20.7116 7.51493C22.4075 7.31541 23.5547 7.06602 24.1532 6.76675C24.7518 6.36773 25.5498 6.21809 26.5474 6.31785C27.0462 6.51736 27.3953 6.76675 27.5948 7.06602C27.8941 7.36529 28.1435 7.66456 28.343 7.96383C29.8393 7.76432 30.8369 7.5648 31.3357 7.36529C31.8345 7.06602 32.3831 6.86651 32.9817 6.76675C34.1787 6.667 35.1264 6.51736 35.8247 6.31785C36.6228 6.11834 37.2712 6.41761 37.77 7.21566C38.3685 7.21566 39.0668 7.31541 39.8649 7.51493C40.1641 7.31541 40.5133 7.21566 40.9123 7.21566C41.4111 7.21566 41.9099 7.16578 42.4086 7.06602C42.7079 7.06602 42.9573 7.01614 43.1568 6.91639C43.4561 6.81663 43.7554 6.81663 44.0546 6.91639C45.2517 7.21566 46.1994 7.31541 46.8977 7.21566C47.596 7.01614 48.1446 7.16578 48.5437 7.66456C49.0424 7.66456 49.4415 7.76432 49.7407 7.96383C50.04 8.06359 50.439 8.16334 50.9378 8.2631C51.6361 8.06359 52.2347 7.8142 52.7334 7.51493C53.2322 7.21566 53.7809 6.96627 54.3794 6.76675C55.4767 7.16578 55.9755 7.51493 55.8758 7.8142C55.8758 8.11346 55.9256 8.36286 56.0254 8.56237C56.3247 8.56237 56.7237 8.56237 57.2225 8.56237C57.821 8.56237 58.2699 8.66212 58.5692 8.86164C59.3672 9.8592 59.8161 10.3081 59.9159 10.2083C60.1154 10.0088 60.3648 9.95896 60.6641 10.0587C61.0631 10.2582 61.2626 10.6074 61.2626 11.1062C61.3624 11.6049 61.4621 12.004 61.5619 12.3032C62.1604 12.802 62.8587 13.1013 63.6568 13.201C64.4548 13.9991 65.0533 14.4979 65.4524 14.6974C65.8514 14.7971 66.2504 14.9468 66.6494 15.1463C67.5473 15.8446 68.1458 16.3434 68.4451 16.6426C68.8441 16.8421 69.2431 17.0915 69.6421 17.3908C69.6421 17.7898 69.7419 18.0891 69.9414 18.2886C70.2407 18.3884 70.4901 18.538 70.6896 18.7375C70.3903 19.4358 70.3903 19.8847 70.6896 20.0842C71.0886 20.184 71.3879 20.4334 71.5874 20.8324C71.8867 22.1292 72.2358 23.027 72.6348 23.5258C73.0339 23.9249 73.1336 24.4735 72.9341 25.1718C73.1336 26.1694 73.5825 26.9175 74.2808 27.4163C75.0789 27.9151 75.5776 28.6134 75.7772 29.5112C75.4779 30.808 75.4779 31.7557 75.7772 32.3543C76.0764 32.853 76.1762 33.3518 76.0764 33.8506L75.3283 34.8981ZM57.821 43.128C57.9208 42.3299 57.9208 41.7314 57.821 41.3323C57.821 40.8336 57.7213 40.3348 57.5217 39.836C57.422 39.0379 57.2723 38.4394 57.0728 38.0404C56.9731 37.5416 56.8234 37.0428 56.6239 36.544C56.8234 36.0453 56.8733 35.6462 56.7736 35.347C56.7736 34.9479 56.7736 34.499 56.7736 34.0002C56.8733 33.0027 56.8234 32.454 56.6239 32.3543C56.5242 32.1548 56.4244 31.9552 56.3247 31.7557C55.5266 30.6584 55.0777 29.9102 54.978 29.5112C54.8782 29.1122 54.8283 28.6633 54.8283 28.1645C54.529 27.6657 54.0303 27.4163 53.332 27.4163C52.7334 27.4163 52.3344 27.1669 52.1349 26.6682C52.0351 25.4711 51.8356 24.7229 51.5364 24.4236C51.2371 24.1244 51.0875 23.6755 51.0875 23.0769C50.3892 23.2764 49.8405 23.2764 49.4415 23.0769C49.1422 22.8774 48.7931 22.6779 48.394 22.4784C47.8952 22.8774 47.3466 22.9772 46.748 22.7777C46.1495 22.4784 45.551 22.4784 44.9524 22.7777C44.1544 22.4784 43.5558 22.3786 43.1568 22.4784C42.7578 22.4784 42.4086 22.3786 42.1094 22.1791C41.5108 21.3811 41.0121 21.0818 40.613 21.2813C40.214 21.4808 39.7651 21.4808 39.2663 21.2813C38.7675 22.1791 38.4683 22.6779 38.3685 22.7777C38.3685 22.8774 38.2688 23.027 38.0692 23.2266C36.4731 22.5283 35.4257 22.2789 34.9269 22.4784C34.5279 22.5781 34.0291 22.7278 33.4306 22.9273C32.2335 22.5283 31.4853 22.3786 31.1861 22.4784C31.0863 22.9772 31.0364 23.4261 31.0364 23.8251C31.1362 24.2241 31.0863 24.6231 30.8868 25.0222C31.0863 25.2217 31.3357 25.4212 31.635 25.6207C31.9342 25.8202 32.1337 26.1195 32.2335 26.5185C32.1337 27.0173 31.9342 27.4163 31.635 27.7156C31.4354 28.0149 31.2359 28.4139 31.0364 28.9127C31.4354 29.3117 31.5352 29.8105 31.3357 30.409C31.1362 31.0076 30.9367 31.5063 30.7371 31.9054C31.0364 32.5039 30.9367 33.0526 30.4379 33.5513C30.6374 34.0501 30.8369 34.499 31.0364 34.8981C31.3357 35.2971 31.4853 35.8457 31.4853 36.544C31.3856 37.0428 31.2359 37.4917 31.0364 37.8907C30.8369 38.19 30.6873 38.589 30.5875 39.0878C31.1861 39.9856 31.4354 40.5343 31.3357 40.7338C31.2359 40.9333 31.1362 41.1328 31.0364 41.3323C31.1362 41.6316 31.2858 41.881 31.4853 42.0805C31.6848 42.28 31.8843 42.5294 32.0839 42.8287C32.2834 43.4272 32.2834 44.0756 32.0839 44.7739C31.8843 45.3725 31.7347 45.971 31.635 46.5696C31.635 46.8688 31.635 47.218 31.635 47.617C31.7347 47.9163 31.7347 48.1657 31.635 48.3652C31.3357 49.3627 31.2858 49.9613 31.4853 50.1608C31.6848 50.3603 31.8345 50.6596 31.9342 51.0586C31.5352 51.8566 31.2359 52.4053 31.0364 52.7046C30.8369 52.9041 30.6374 53.1535 30.4379 53.4527C30.6374 53.6523 30.8369 53.8518 31.0364 54.0513C31.3357 54.2508 31.5851 54.4503 31.7846 54.6498C31.6848 55.1486 31.6848 55.4977 31.7846 55.6973C31.9841 55.8968 32.1337 56.1462 32.2335 56.4454C32.3333 57.3432 32.5328 57.842 32.832 57.9418C33.1313 57.9418 33.5303 57.8919 34.0291 57.7921C35.2262 57.1936 35.8247 57.0939 35.8247 57.4929C35.8247 57.8919 36.0741 58.1413 36.5729 58.2411C37.0717 58.1413 37.4707 57.9418 37.77 57.6425C38.0692 57.2435 38.568 57.044 39.2663 57.044C40.0644 57.5428 40.613 57.7423 40.9123 57.6425C41.2116 57.5428 41.6106 57.4929 42.1094 57.4929C42.5084 57.2934 42.8575 57.044 43.1568 56.7447C43.5558 56.4454 44.0546 56.2958 44.6532 56.2958C46.0498 56.7946 47.0972 56.8943 47.7955 56.5951C48.5935 56.2958 49.3916 55.9965 50.1896 55.6973C50.3892 55.2982 50.5887 54.9491 50.7882 54.6498C51.0875 54.2508 51.4366 53.9515 51.8356 53.752C52.0351 53.5525 52.3344 53.5026 52.7334 53.6024C53.1325 53.7021 53.4317 53.7021 53.6312 53.6024C53.8308 53.1036 53.9804 52.6048 54.0801 52.106C54.1799 51.6073 54.3794 51.1583 54.6787 50.7593C55.377 50.6596 55.9755 50.2605 56.4743 49.5622C55.9755 48.3652 56.0753 47.1681 56.7736 45.971C56.6738 45.4722 56.6738 45.0732 56.7736 44.7739C56.9731 44.4747 57.1227 44.1255 57.2225 43.7265L57.821 43.128ZM138.324 113.157C138.624 113.257 138.923 113.307 139.222 113.307C139.621 113.307 139.97 113.356 140.27 113.456C140.768 113.955 140.719 114.454 140.12 114.953C139.621 115.352 139.073 115.651 138.474 115.85C137.476 115.451 136.728 115.302 136.23 115.401C135.831 115.401 135.431 115.352 135.032 115.252C134.534 115.551 133.835 115.701 132.938 115.701C132.14 115.701 131.391 115.651 130.693 115.551C129.596 114.953 128.848 114.803 128.449 115.102C128.05 115.401 127.601 115.601 127.102 115.701C126.503 115.8 126.005 115.701 125.605 115.401C125.306 115.102 124.907 114.853 124.408 114.653C123.91 114.753 123.461 114.853 123.062 114.953C122.663 115.052 122.264 115.202 121.865 115.401C121.266 115.202 120.668 115.202 120.069 115.401C119.57 115.601 119.022 115.651 118.423 115.551C118.024 115.651 117.775 115.85 117.675 116.15C117.675 116.549 117.475 116.748 117.076 116.748C116.378 115.95 115.979 115.501 115.879 115.401C115.879 115.202 115.779 115.052 115.58 114.953C114.782 113.556 114.283 112.359 114.084 111.361C113.984 110.364 113.734 109.466 113.335 108.668C112.737 107.67 112.388 107.122 112.288 107.022C112.288 106.922 112.288 106.773 112.288 106.573C111.091 105.675 110.742 104.578 111.241 103.281C110.941 102.483 110.742 102.084 110.642 102.084C110.542 101.984 110.492 101.835 110.492 101.635C110.193 101.336 109.994 100.937 109.894 100.438C109.794 99.8395 109.644 99.2908 109.445 98.792C108.946 98.0937 108.597 97.6947 108.397 97.5949C108.298 97.3954 108.148 97.1959 107.949 96.9964C108.048 96.3979 107.949 95.9988 107.649 95.7993C107.35 95.5001 107.2 95.101 107.2 94.6023C107.001 92.8066 107.051 91.6594 107.35 91.1607C106.253 90.1631 105.554 89.5646 105.255 89.365C104.956 89.0658 104.607 88.8164 104.208 88.6169C103.709 89.0159 103.46 89.7142 103.46 90.7118C103.46 91.6096 103.16 92.2081 102.562 92.5074C102.362 93.2057 102.213 93.6546 102.113 93.8541C102.113 94.0536 102.063 94.2032 101.963 94.303C101.764 94.9015 101.514 95.5001 101.215 96.0986C101.016 96.5974 100.816 97.0962 100.617 97.5949C100.517 98.2932 100.267 98.8419 99.8683 99.2409C99.5691 99.5402 99.3695 100.089 99.2698 100.887C99.0703 101.186 98.8708 101.485 98.6713 101.785C98.5715 101.984 98.4219 102.234 98.2223 102.533C97.3245 103.83 96.6761 104.777 96.2771 105.376C95.8781 105.974 95.7783 106.822 95.9778 107.92C95.6786 108.419 95.2297 108.818 94.6311 109.117C94.5314 109.516 94.3817 109.815 94.1822 110.015C93.9827 110.214 93.7832 110.464 93.5837 110.763C93.5837 111.461 93.4839 112.159 93.2844 112.858C93.0849 113.456 93.035 114.155 93.1348 114.953C92.3367 115.451 91.8878 115.651 91.7881 115.551C91.6883 115.352 91.5387 115.252 91.3392 115.252C90.8404 115.352 90.3915 115.352 89.9924 115.252C89.5934 115.152 89.1944 115.202 88.7954 115.401C88.2966 115.302 87.8477 115.202 87.4487 115.102C87.0496 115.002 86.6007 114.953 86.1019 114.953C85.7029 115.052 85.3538 115.202 85.0545 115.401C84.7552 115.501 84.456 115.651 84.1567 115.85C83.0594 115.551 82.411 115.501 82.2114 115.701C82.1117 115.8 81.9122 115.85 81.6129 115.85C80.4158 115.651 79.6178 115.551 79.2188 115.551C78.8197 115.451 78.5205 115.152 78.3209 114.653C77.8222 114.653 77.4231 114.803 77.1239 115.102C76.9244 115.401 76.5752 115.601 76.0764 115.701C75.3781 115.701 74.9292 115.551 74.7297 115.252C74.5302 114.853 74.1811 114.603 73.6823 114.504C72.984 114.603 72.5351 114.853 72.3356 115.252C72.0363 115.651 71.5375 115.9 70.8392 116C70.1409 116.299 69.7419 116.399 69.6421 116.299C69.4426 116.2 69.2431 116.1 69.0436 116C68.046 115.9 67.4475 115.701 67.248 115.401C66.9487 115.002 66.9487 114.603 67.248 114.204C68.046 114.105 68.5448 113.955 68.7443 113.755C68.9438 113.556 69.293 113.556 69.7918 113.755C70.4901 112.858 71.2881 112.11 72.1859 111.511C73.0837 110.912 73.9815 110.314 74.8794 109.715C76.0764 109.217 76.8246 108.718 77.1239 108.219C77.5229 107.72 77.9718 107.221 78.4706 106.723C79.4681 105.825 80.0667 105.176 80.2662 104.777C80.4657 104.378 80.6153 103.929 80.7151 103.431C80.9146 103.032 81.1141 102.683 81.3136 102.383C81.5132 101.984 81.8124 101.635 82.2114 101.336C81.8124 99.9392 81.8623 99.1412 82.3611 98.9417C82.9596 98.7421 83.4085 98.4429 83.7078 98.0438C83.8075 96.747 84.0071 95.8492 84.3063 95.3504C84.7054 94.8516 84.8051 94.1035 84.6056 93.1059C85.2041 92.5074 85.7029 91.9088 86.1019 91.3103C86.6007 90.7118 87.1993 90.1631 87.8976 89.6643C87.9973 87.5694 88.2966 86.0232 88.7954 85.0256C89.2942 84.0281 89.7929 83.0804 90.2917 82.1826C90.3915 81.9831 90.4413 81.7337 90.4413 81.4344C90.4413 81.1351 90.4912 80.8359 90.591 80.5366C90.6907 79.6388 90.8404 79.0403 91.0399 78.741C91.3392 78.342 91.6384 77.9928 91.9377 77.6935C92.0375 77.494 92.1372 77.2945 92.237 77.095C92.3367 76.7957 92.3367 76.4466 92.237 76.0476C92.8355 74.7507 93.2345 74.0026 93.434 73.803C93.7333 73.6035 93.9328 73.3541 94.0326 73.0549C94.6311 72.0573 94.9803 71.3091 95.08 70.8104C95.479 69.6133 95.5289 68.915 95.2297 68.7155C94.9304 68.4162 94.5812 68.0671 94.1822 67.668C94.3817 66.9697 94.2321 66.471 93.7333 66.1717C93.2345 65.8724 92.8854 65.4734 92.6859 64.9746C92.6859 64.4758 92.7357 64.0768 92.8355 63.7775C93.035 63.3785 93.1348 62.8797 93.1348 62.2812C92.9353 61.7824 92.636 61.4831 92.237 61.3834C91.8379 61.2836 91.5387 61.0342 91.3392 60.6352C91.1396 60.2362 91.0898 59.7374 91.1895 59.1389C91.2893 58.5403 91.2394 57.9917 91.0399 57.4929C90.9401 56.6948 90.6907 56.3457 90.2917 56.4454C89.8927 56.4454 89.5435 56.3956 89.2443 56.2958C88.4462 55.1985 88.0971 54.5501 88.1968 54.3506C88.2966 54.151 88.3465 53.9016 88.3465 53.6024C88.2467 52.8043 87.9474 52.1559 87.4487 51.6571C86.9499 51.0586 86.7504 50.3603 86.8501 49.5622C85.7528 48.6644 85.1044 47.8664 84.9049 47.1681C84.8051 46.37 84.6555 45.6717 84.456 45.0732C84.3562 43.7764 84.0569 42.8786 83.5582 42.3798C83.1591 41.881 82.7102 41.3822 82.2114 40.8834C81.9122 40.0854 81.9122 39.5367 82.2114 39.2375C82.0119 38.9382 81.7625 38.7387 81.4633 38.6389C81.2638 38.5392 81.2139 38.2399 81.3136 37.7411C80.2163 37.1426 79.518 36.6937 79.2188 36.3944C79.0192 36.0951 78.8197 35.746 78.6202 35.347C77.8222 35.1474 77.2735 34.7484 76.9742 34.1499C76.4755 33.2521 76.0266 32.7533 75.6275 32.6535C75.3283 32.454 75.0789 32.1548 74.8794 31.7557C74.1811 31.656 73.5825 31.6061 73.0837 31.6061C72.585 31.5063 71.9864 31.5562 71.2881 31.7557C70.9889 31.5562 70.7893 31.3068 70.6896 31.0076C70.4901 30.7083 70.2407 30.4589 69.9414 30.2594C69.0436 29.7606 68.9438 29.2618 69.6421 28.763C70.2407 28.2643 70.939 28.1645 71.737 28.4638C72.2358 28.5635 72.6847 28.4638 73.0837 28.1645C73.5825 27.8652 74.1811 27.8154 74.8794 28.0149C75.3781 28.2144 75.9767 28.3141 76.675 28.3141C77.3733 28.3141 77.9718 28.2643 78.4706 28.1645C78.8696 27.965 79.2188 27.7156 79.518 27.4163C79.8173 27.1171 80.1166 26.8677 80.4158 26.6682C80.9146 26.5684 81.2638 26.6183 81.4633 26.8178C81.7625 27.0173 82.1117 27.2168 82.5107 27.4163C82.9097 27.4163 83.3088 27.4163 83.7078 27.4163C84.1068 27.4163 84.4061 27.3166 84.6056 27.1171C85.0046 27.2168 85.4037 27.3166 85.8027 27.4163C86.3015 27.5161 86.8002 27.4662 87.299 27.2667C87.5983 27.4662 87.7978 27.6657 87.8976 27.8652C88.0971 28.0647 88.3963 28.2144 88.7954 28.3141C90.2917 27.9151 91.2893 27.6657 91.7881 27.566C92.3866 27.4662 92.9353 27.5161 93.434 27.7156C93.7333 27.5161 94.1323 27.4163 94.6311 27.4163C95.1299 27.4163 95.5788 27.3664 95.9778 27.2667C95.9778 28.0647 95.8282 28.4139 95.5289 28.3141C95.2297 28.1146 94.9304 28.1645 94.6311 28.4638C94.9304 29.6608 95.1299 30.5088 95.2297 31.0076C95.3294 31.4066 95.479 31.8555 95.6786 32.3543C96.0776 32.7533 96.3769 33.1523 96.5764 33.5513C96.8756 33.9504 97.3245 34.2496 97.9231 34.4492C98.2223 34.7484 98.5216 35.1474 98.8209 35.6462C99.1202 36.0453 99.2698 36.5939 99.2698 37.2922C99.2698 37.9905 99.17 38.6888 98.9705 39.3871C98.771 39.9856 98.7211 40.5842 98.8209 41.1827C99.9182 42.0805 100.666 42.7788 101.065 43.2776C101.564 43.6766 101.913 44.1255 102.113 44.6243C102.113 45.6219 102.262 46.4199 102.562 47.0185C102.861 47.617 103.21 48.2155 103.609 48.8141C103.809 49.9114 103.859 50.5598 103.759 50.7593C103.759 50.8591 103.759 51.0087 103.759 51.2082C103.958 51.5075 104.108 51.7569 104.208 51.9564C104.307 52.1559 104.457 52.4053 104.657 52.7046C104.657 53.4029 104.657 54.0513 104.657 54.6498C104.258 55.2484 104.058 55.9467 104.058 56.7447C105.355 55.4479 106.053 54.5501 106.153 54.0513C105.654 52.954 105.505 52.3554 105.704 52.2557C105.904 52.0562 106.003 51.8566 106.003 51.6571C106.103 51.2581 106.103 50.909 106.003 50.6097C105.904 50.2107 105.854 49.8615 105.854 49.5622C106.552 48.2654 107.051 47.3676 107.35 46.8688C107.649 46.2703 107.899 45.572 108.098 44.7739C108.298 44.4747 108.547 44.1754 108.846 43.8761C109.146 43.5769 109.395 43.2776 109.595 42.9783C109.794 42.1803 110.093 41.482 110.492 40.8834C110.991 40.1851 111.44 39.5866 111.839 39.0878C112.039 37.9905 112.338 36.9929 112.737 36.0951C113.236 35.1973 113.485 34.1499 113.485 32.9528C113.884 32.6535 114.183 32.3543 114.383 32.055C114.582 31.7557 114.782 31.4565 114.981 31.1572C114.782 29.9601 114.732 28.8628 114.832 27.8652C115.031 26.8677 115.48 26.0696 116.178 25.4711C117.076 26.1694 117.475 26.6183 117.376 26.8178C117.276 26.9175 117.276 27.0672 117.376 27.2667C118.273 27.0672 119.022 27.0672 119.62 27.2667C120.318 27.3664 121.116 27.5161 122.014 27.7156C122.513 27.5161 123.112 27.3166 123.81 27.1171C124.508 26.9175 125.206 26.7679 125.905 26.6682C126.404 26.6682 126.852 26.718 127.251 26.8178C127.75 26.8178 128.199 26.718 128.598 26.5185C129.496 27.2168 130.144 27.566 130.543 27.566C131.042 27.4662 131.541 27.4662 132.04 27.566C133.536 27.2667 134.983 27.1669 136.379 27.2667C136.778 27.4662 137.127 27.6158 137.427 27.7156C137.726 27.8154 137.975 28.0149 138.175 28.3141C136.978 29.2119 136.03 29.8105 135.332 30.1097C134.733 30.3093 134.234 30.7582 133.835 31.4565C133.736 32.2545 133.486 32.7034 133.087 32.8032C132.788 32.9029 132.489 33.0526 132.189 33.2521C131.391 34.0501 130.693 34.8981 130.095 35.7959C129.596 36.5939 128.798 37.2423 127.7 37.7411C127.501 38.2399 127.251 38.6888 126.952 39.0878C126.653 39.3871 126.503 39.836 126.503 40.4345C126.503 42.0306 126.304 43.0781 125.905 43.5769C125.506 44.0756 125.107 44.5245 124.708 44.9236C124.608 45.6219 124.408 46.1705 124.109 46.5696C123.81 46.8688 123.56 47.3177 123.361 47.9163C122.962 48.2155 122.663 48.6644 122.463 49.263C122.264 49.8615 121.964 50.3104 121.565 50.6097C121.565 51.1085 121.565 51.5574 121.565 51.9564C121.665 52.3554 121.665 52.8043 121.565 53.3031C121.366 53.8019 121.017 54.2508 120.518 54.6498C120.119 54.9491 119.72 55.2982 119.321 55.6973C118.922 56.0963 118.623 56.5951 118.423 57.1936C118.224 57.6924 118.273 58.2909 118.573 58.9892C117.575 60.1863 116.877 61.4831 116.478 62.8797C115.68 63.0792 115.231 63.4783 115.131 64.0768C115.53 65.7727 115.53 66.87 115.131 67.3688C114.732 67.7678 114.383 68.3164 114.084 69.0147C114.383 70.4113 114.383 71.3091 114.084 71.7082C114.283 71.9077 114.533 72.0573 114.832 72.1571C115.231 72.2568 115.53 72.4065 115.73 72.606C116.428 74.5013 116.977 76.0476 117.376 77.2446C117.874 77.7434 118.174 78.3918 118.273 79.1899C118.473 79.8882 118.772 80.5865 119.171 81.2848C119.47 82.1826 119.77 82.7312 120.069 82.9308C120.468 83.1303 120.717 83.4794 120.817 83.9782C120.817 84.3772 120.717 84.7264 120.518 85.0256C120.318 85.2252 120.219 85.5743 120.219 86.0731C120.518 86.2726 120.817 86.4222 121.116 86.522C121.416 86.522 121.615 86.6716 121.715 86.9709C121.914 88.168 122.214 88.8164 122.613 88.9161C123.012 89.0159 123.261 89.3152 123.361 89.8139C123.959 90.1132 124.558 90.4624 125.157 90.8614C125.755 91.1607 126.054 91.7093 126.054 92.5074C125.855 92.9064 125.655 93.3054 125.456 93.7044C125.356 94.0037 125.206 94.3529 125.007 94.7519C125.107 95.6497 125.306 96.4976 125.605 97.2957C126.005 98.0937 126.005 98.8918 125.605 99.6898C125.705 100.089 125.805 100.438 125.905 100.737C126.005 100.937 126.054 101.186 126.054 101.485C126.753 101.585 127.202 101.835 127.401 102.234C127.7 102.633 128.05 102.982 128.449 103.281C128.449 104.179 128.498 104.777 128.598 105.077C128.698 105.276 128.748 105.575 128.748 105.974C129.845 106.573 130.394 107.072 130.394 107.471C131.192 107.471 131.79 107.521 132.189 107.62C132.389 108.019 132.688 108.319 133.087 108.518C133.586 108.618 133.935 108.818 134.135 109.117C134.933 110.015 135.481 110.464 135.781 110.464C136.08 110.364 136.379 110.414 136.678 110.613C136.878 110.813 136.928 111.112 136.828 111.511C136.828 111.81 136.828 112.06 136.828 112.259C136.928 112.658 137.127 112.908 137.427 113.007C137.726 113.007 138.025 113.057 138.324 113.157ZM214.788 99.8395C213.491 100.139 212.693 100.837 212.394 101.934C212.094 102.433 211.895 102.882 211.795 103.281C211.695 103.68 211.546 104.079 211.346 104.478C211.246 104.777 211.047 105.027 210.748 105.226C210.548 105.326 210.249 105.276 209.85 105.077C208.752 105.675 207.954 106.324 207.456 107.022C207.057 107.72 206.608 108.518 206.109 109.416C204.613 110.015 203.765 110.513 203.565 110.912C203.366 111.212 203.066 111.511 202.667 111.81C201.57 112.209 200.822 112.608 200.423 113.007C200.123 113.406 199.824 113.805 199.525 114.204C198.328 114.504 197.231 114.903 196.233 115.401C195.235 115.8 194.138 116.15 192.941 116.449C192.841 117.047 192.542 117.496 192.043 117.796C191.644 118.195 191.345 118.743 191.145 119.442C190.746 119.641 190.248 119.741 189.649 119.741C189.051 119.741 188.502 119.691 188.003 119.591C187.704 119.392 187.454 119.192 187.255 118.993C187.055 118.793 186.806 118.693 186.507 118.693C186.207 118.693 185.908 118.793 185.609 118.993C185.409 119.192 185.11 119.392 184.711 119.591C183.913 119.491 183.265 119.591 182.766 119.89C182.367 120.29 181.768 120.439 180.97 120.339C179.873 119.94 179.025 119.691 178.426 119.591C177.928 119.591 177.429 119.591 176.93 119.591C176.631 119.491 176.332 119.342 176.032 119.142C175.733 119.043 175.434 118.893 175.135 118.693C174.636 118.793 174.237 118.743 173.937 118.544C173.638 118.444 173.339 118.344 173.04 118.245C172.84 118.045 172.641 117.796 172.441 117.496C172.341 117.297 172.142 117.147 171.843 117.047C171.244 117.147 170.695 117.297 170.197 117.496C169.798 117.696 169.299 117.796 168.7 117.796C168.201 117.596 167.753 117.446 167.354 117.347C167.054 117.247 166.805 117.047 166.605 116.748C165.508 116.648 164.56 116.449 163.762 116.15C163.064 115.95 162.316 115.751 161.518 115.551C161.318 114.953 161.268 114.554 161.368 114.354C161.468 114.055 161.468 113.706 161.368 113.307C160.969 112.908 160.47 112.658 159.872 112.558C159.273 112.459 158.725 112.309 158.226 112.11C157.827 111.311 157.328 110.613 156.729 110.015C156.231 109.416 155.832 108.668 155.532 107.77C155.133 107.67 154.784 107.67 154.485 107.77C154.285 107.87 153.986 107.87 153.587 107.77C153.088 107.271 152.739 106.673 152.54 105.974C152.44 105.176 151.991 104.628 151.193 104.329C150.594 103.231 150.146 102.633 149.846 102.533C149.547 102.333 149.298 102.034 149.098 101.635C148.5 99.3407 148.101 97.4952 147.901 96.0986C147.602 95.5998 147.253 95.101 146.854 94.6023C146.554 94.1035 146.255 93.6047 145.956 93.1059C145.956 92.4076 145.856 91.6594 145.657 90.8614C145.158 90.0633 144.709 89.2154 144.31 88.3176C143.911 87.4198 143.512 86.522 143.113 85.6242C142.714 84.9259 142.315 84.3273 141.916 83.8286C141.916 82.9308 141.766 82.0828 141.467 81.2848C141.467 80.6862 141.517 80.1875 141.616 79.7884C141.716 79.2896 141.766 78.7909 141.766 78.2921C141.367 77.494 141.068 76.5463 140.868 75.449C140.669 74.252 140.818 73.1546 141.317 72.1571C140.818 71.5585 140.619 70.8602 140.719 70.0622C140.818 69.2641 141.068 68.5658 141.467 67.9673C141.467 67.668 141.317 67.4685 141.018 67.3688C140.818 67.1692 140.619 66.9199 140.419 66.6206C140.22 64.825 140.32 63.0792 140.719 61.3834C141.217 59.5878 141.267 57.6924 140.868 55.6973L141.467 51.8068C141.566 50.909 141.766 50.1109 142.065 49.4126C142.464 48.7143 142.913 48.1158 143.412 47.617C143.512 46.7192 143.661 46.0708 143.861 45.6717C143.861 44.3749 143.811 42.9284 143.711 41.3323C143.711 39.7362 143.711 38.2399 143.711 36.8433C144.011 36.6438 144.31 36.3944 144.609 36.0951C144.908 35.7959 145.208 35.5465 145.507 35.347C145.806 33.2521 146.255 31.8056 146.854 31.0076C147.552 30.2095 148.051 29.2618 148.35 28.1645C148.849 27.6657 149.198 27.0672 149.397 26.3689C149.697 25.5708 149.996 24.8725 150.295 24.274C150.694 23.875 151.043 23.4759 151.343 23.0769C151.642 22.5781 152.041 22.1791 152.54 21.8798C152.739 21.1816 152.939 20.7326 153.138 20.5331C153.338 20.3336 153.537 20.1341 153.737 19.9346C154.236 18.4383 155.083 17.2911 156.281 16.493C157.478 15.6949 158.475 14.7473 159.273 13.6499C159.872 13.3507 160.371 13.0015 160.77 12.6025C161.169 12.2035 161.618 11.8045 162.116 11.4054C162.815 11.2059 163.363 10.9565 163.762 10.6573C164.261 10.2582 164.76 9.80932 165.259 9.31054C165.658 9.21078 166.057 9.06115 166.456 8.86164C166.855 8.66212 167.254 8.46261 167.653 8.2631C169.249 7.96383 170.396 7.71444 171.094 7.51493C171.892 7.21566 172.84 7.01614 173.937 6.91639C174.536 6.71687 175.085 6.51736 175.583 6.31785C176.182 6.01858 176.731 5.66943 177.229 5.27041C177.628 5.27041 177.978 5.22053 178.277 5.12077C178.576 5.02102 178.925 4.87138 179.324 4.67187C179.823 4.77163 180.172 4.77163 180.372 4.67187C180.671 4.47236 180.97 4.27284 181.27 4.07333C182.467 4.3726 183.364 4.72175 183.963 5.12077C185.36 6.11834 186.407 6.51736 187.105 6.31785C187.804 6.01858 188.552 6.01858 189.35 6.31785C190.347 6.71687 191.096 6.86651 191.594 6.76675C192.193 6.56724 192.791 6.56724 193.39 6.76675C194.487 7.36529 195.086 7.61468 195.186 7.51493C195.385 7.31541 195.585 7.31541 195.784 7.51493C196.083 7.61468 196.283 7.8142 196.383 8.11346C196.482 8.41273 196.632 8.66212 196.832 8.86164C197.131 9.06115 197.58 9.46018 198.178 10.0587C198.577 10.0587 198.877 10.0587 199.076 10.0587C199.375 9.95896 199.724 10.0088 200.123 10.2083C200.922 11.3057 201.52 12.004 201.919 12.3032C202.318 12.5027 202.717 12.7521 203.116 13.0514C203.316 13.3507 203.415 13.6998 203.415 14.0988C203.415 14.3981 203.465 14.7473 203.565 15.1463C204.363 16.5429 205.411 17.74 206.707 18.7375C207.605 18.937 208.054 19.1365 208.054 19.3361C208.054 19.4358 208.104 19.5854 208.204 19.785C208.304 19.9845 208.553 20.1341 208.952 20.2339C209.351 20.3336 209.7 20.4833 209.999 20.6828C210.398 20.7825 210.698 20.9322 210.897 21.1317C211.097 21.2314 211.047 21.4309 210.748 21.7302C210.548 22.7278 210.398 23.2764 210.299 23.3762C210.299 23.4759 210.299 23.5757 210.299 23.6755C211.296 23.875 211.995 24.0745 212.394 24.274C212.394 24.5733 212.394 24.8725 212.394 25.1718C212.493 25.4711 212.493 25.7703 212.394 26.0696C211.995 27.3664 212.094 28.0647 212.693 28.1645C213.391 28.1645 213.84 28.4139 214.04 28.9127C214.04 29.3117 213.94 29.611 213.74 29.8105C213.541 30.01 213.441 30.3093 213.441 30.7083C212.743 31.1073 212.144 31.4565 211.645 31.7557C211.246 31.9552 210.797 31.9552 210.299 31.7557C210.099 32.1548 209.85 32.5039 209.55 32.8032C209.251 33.1024 208.703 33.2521 207.904 33.2521C207.306 34.5489 206.458 35.6462 205.361 36.544C205.061 36.4443 204.762 36.2946 204.463 36.0951C204.263 35.8956 204.014 35.7959 203.715 35.7959C203.016 35.9954 202.717 36.4942 202.817 37.2922C203.016 37.9905 203.016 38.6389 202.817 39.2375C202.218 39.836 201.819 40.2849 201.62 40.5842C201.221 40.6839 200.922 40.8336 200.722 41.0331C200.523 41.1328 200.223 41.2326 199.824 41.3323C199.126 42.5294 198.677 43.0781 198.478 42.9783C198.278 42.7788 197.979 42.6791 197.58 42.6791C197.48 43.4771 196.931 44.1255 195.934 44.6243C195.136 45.1231 194.687 45.5221 194.587 45.8214C194.487 46.0209 194.288 46.2204 193.988 46.4199C192.791 46.5197 191.943 46.8189 191.445 47.3177C190.946 47.8165 190.447 47.8165 189.948 47.3177C189.849 45.6219 190.048 44.6243 190.547 44.325C191.744 44.0258 192.193 43.7764 191.894 43.5769C191.694 43.3773 191.594 43.128 191.594 42.8287C192.193 41.5319 192.642 40.7338 192.941 40.4345C193.24 40.0355 193.54 39.6365 193.839 39.2375C193.739 38.8384 193.739 38.5392 193.839 38.3397C193.939 38.0404 194.038 37.7411 194.138 37.4418C194.038 36.3445 194.288 35.5963 194.886 35.1973C194.687 34.3993 194.338 33.8506 193.839 33.5513C193.34 33.1523 193.141 32.5039 193.24 31.6061C193.44 31.4066 193.689 31.3567 193.988 31.4565C194.288 31.4565 194.587 31.4565 194.886 31.4565C194.587 30.2594 194.238 29.5112 193.839 29.2119C193.54 28.9127 193.091 28.6633 192.492 28.4638C191.594 27.2667 190.996 26.5684 190.697 26.3689C190.397 26.0696 190.148 25.6706 189.948 25.1718C189.35 24.1742 189.001 23.6256 188.901 23.5258C188.302 22.9273 188.003 22.4285 188.003 22.0295C187.504 21.6305 187.105 21.3811 186.806 21.2813C186.507 21.1816 186.108 21.0818 185.609 20.982C184.811 20.7825 184.262 20.7825 183.963 20.982C183.763 21.0818 183.464 21.2813 183.065 21.5806C181.369 21.6803 180.072 22.0295 179.175 22.628C178.277 23.1268 177.279 23.5757 176.182 23.9747C174.985 23.5757 174.087 23.5757 173.489 23.9747C172.99 24.274 172.391 24.5234 171.693 24.7229C170.596 25.521 169.748 26.5684 169.149 27.8652C168.551 29.0623 168.002 30.3591 167.503 31.7557C167.503 32.1548 167.453 32.5039 167.354 32.8032C167.354 33.0027 167.354 33.302 167.354 33.701C167.154 34.1998 166.605 34.8981 165.708 35.7959C165.508 36.8932 165.109 37.7411 164.51 38.3397C164.012 38.8384 163.513 39.3372 163.014 39.836C163.014 40.3348 162.864 40.7338 162.565 41.0331C162.366 41.3323 162.166 41.6316 161.967 41.9309C161.967 42.7289 161.867 43.4272 161.667 44.0258C161.468 44.5245 161.268 45.0233 161.069 45.5221C161.468 45.8214 161.667 46.2703 161.667 46.8688C161.667 47.3676 161.767 47.8664 161.967 48.3652C161.667 49.662 161.568 50.3603 161.667 50.4601C161.767 50.5598 161.867 50.7094 161.967 50.909C162.066 51.707 162.017 52.3055 161.817 52.7046C161.618 53.1036 161.368 53.5525 161.069 54.0513C161.268 55.1486 161.368 55.9965 161.368 56.5951C161.368 57.0939 161.368 57.6425 161.368 58.2411C160.869 59.2386 160.57 60.5853 160.47 62.2812C160.47 63.8773 160.47 65.224 160.47 66.3213C160.57 66.8201 160.919 67.3688 161.518 67.9673C161.518 68.6656 161.418 69.2641 161.219 69.7629C161.019 70.2617 160.919 70.7106 160.919 71.1096C160.919 71.9077 161.169 72.3067 161.667 72.3067C162.166 72.2069 162.515 72.4065 162.715 72.9052C162.715 73.3043 162.665 73.6035 162.565 73.803C162.465 74.0026 162.416 74.3018 162.416 74.7009C162.615 76.0974 162.515 77.1948 162.116 77.9928C161.817 78.6911 161.518 79.4393 161.219 80.2373C161.318 81.0354 161.468 81.7337 161.667 82.3322C161.867 82.9308 162.066 83.4794 162.266 83.9782C162.864 84.9758 163.064 85.5743 162.864 85.7738C162.665 85.8736 162.565 86.123 162.565 86.522C162.765 86.8213 163.014 87.1205 163.313 87.4198C163.613 87.7191 163.812 88.1181 163.912 88.6169C164.111 88.8164 164.361 89.0159 164.66 89.2154C164.959 89.3152 165.209 89.4648 165.408 89.6643C165.708 90.4624 165.957 90.9113 166.156 91.011C166.356 91.1108 166.506 91.2604 166.605 91.4599C166.905 92.1582 167.204 92.8565 167.503 93.5548C167.802 94.1534 168.002 94.8516 168.102 95.6497C168.6 96.6473 169.199 97.4453 169.897 98.0438C170.695 98.5426 171.394 99.2409 171.992 100.139C172.99 100.837 173.788 101.485 174.386 102.084C175.583 102.084 176.431 101.984 176.93 101.785C177.529 101.485 178.027 101.585 178.426 102.084C178.327 102.583 178.177 102.982 177.978 103.281C177.778 103.58 177.628 103.979 177.529 104.478C177.928 104.678 178.227 104.728 178.426 104.628C178.726 104.428 179.025 104.229 179.324 104.029C181.02 104.029 182.117 103.83 182.616 103.431C183.215 102.932 183.913 102.583 184.711 102.383C184.911 102.184 185.11 102.034 185.31 101.934C185.609 101.735 185.808 101.485 185.908 101.186C186.307 100.887 186.656 100.538 186.956 100.139C187.355 99.64 187.654 99.1412 187.853 98.6424C188.652 97.5451 189.1 96.7969 189.2 96.3979C189.699 96.1984 190.048 95.8991 190.248 95.5001C190.547 95.101 190.946 94.8018 191.445 94.6023C192.043 93.6047 192.442 92.8066 192.642 92.2081C192.243 91.5098 191.894 91.1607 191.594 91.1607C191.295 91.1607 191.046 91.011 190.846 90.7118C190.946 89.7142 191.245 89.0658 191.744 88.7665C192.342 88.3675 192.841 87.7689 193.24 86.9709C193.041 86.7714 192.841 86.5719 192.642 86.3724C192.542 86.0731 192.492 85.7239 192.492 85.3249C192.692 84.4271 192.742 83.8286 192.642 83.5293C192.642 83.23 192.742 82.831 192.941 82.3322C192.742 81.8334 192.442 81.3845 192.043 80.9855C191.744 80.5865 191.694 80.0378 191.894 79.3395C191.295 78.1425 191.145 77.494 191.445 77.3943C191.744 77.1948 191.794 76.9454 191.594 76.6461C190.198 76.0476 189.649 75.2495 189.948 74.252C190.647 72.8554 191.195 72.4563 191.594 73.0549C191.993 73.6534 192.392 74.1023 192.791 74.4016C194.088 74.8006 194.737 75.1498 194.737 75.449C194.836 75.7483 194.986 75.9977 195.186 76.1972C196.782 77.494 197.58 78.4916 197.58 79.1899C198.078 79.2896 198.428 79.2896 198.627 79.1899C198.926 79.0901 199.276 79.14 199.675 79.3395C199.874 79.6388 199.924 79.9879 199.824 80.387C199.724 80.6862 199.724 80.9855 199.824 81.2848C200.323 81.3845 200.672 81.5342 200.872 81.7337C201.071 81.8334 201.321 81.9831 201.62 82.1826C201.919 82.8809 202.318 83.4794 202.817 83.9782C202.817 84.6765 202.717 85.4247 202.518 86.2227C202.318 86.921 202.568 87.5196 203.266 88.0183C203.565 88.0183 203.814 87.9685 204.014 87.8687C204.313 87.6692 204.712 87.5694 205.211 87.5694C206.209 88.567 206.957 89.8638 207.456 91.4599C208.254 91.6594 208.802 91.9587 209.102 92.3577C209.401 92.657 209.65 93.0062 209.85 93.4052C210.349 93.3054 210.797 93.4551 211.196 93.8541C211.695 94.2531 211.995 94.6521 212.094 95.0512C212.593 95.6497 212.942 96.0986 213.142 96.3979C213.441 96.5974 213.541 96.8967 213.441 97.2957C213.74 97.8942 214.04 98.2434 214.339 98.3431C214.638 98.3431 214.838 98.5426 214.937 98.9417L214.788 99.8395Z" fill="black"/>
</g>
<defs>
<filter id="filter0_d_14_817" x="0.21167" y="0.763565" width="227.842" height="154.274" filterUnits="userSpaceOnUse" color-interpolation-filters="sRGB">
<feFlood flood-opacity="0" result="BackgroundImageFix"/>
<feColorMatrix in="SourceAlpha" type="matrix" values="0 0 0 0 0 0 0 0 0 0 0 0 0 0 0 0 0 0 127 0" result="hardAlpha"/>
<feOffset dx="7.35484" dy="2.45161"/>
<feGaussianBlur stdDeviation="2.88065"/>
<feComposite in2="hardAlpha" operator="out"/>
<feColorMatrix type="matrix" values="0 0 0 0 0 0 0 0 0 0 0 0 0 0 0 0 0 0 0.25 0"/>
<feBlend mode="normal" in2="BackgroundImageFix" result="effect1_dropShadow_14_817"/>
<feBlend mode="normal" in="SourceGraphic" in2="effect1_dropShadow_14_817" result="shape"/>
</filter>
</defs>
</svg>
