<svg width="32" height="32" viewBox="0 0 32 32" fill="none" xmlns="http://www.w3.org/2000/svg">
<path d="M9.59145 26.4205L9.36586 27.185L9.99717 26.6984L16.2582 21.8722L22.5192 26.6984L23.1505 27.185L22.9249 26.4205L20.5701 18.4402L26.4374 14.2679L27.0971 13.7987H26.2876H18.9901L16.5053 5.6905L16.2582 4.88405L16.011 5.6905L13.5263 13.7987H6.22878H5.41927L6.07899 14.2679L11.9463 18.4402L9.59145 26.4205ZM16.4148 24.7368L16.2582 24.6175L16.1016 24.7368L8.01101 30.8976C7.76633 31.0646 7.53978 31.1263 7.32474 31.109C7.07449 31.0888 6.84788 31.0186 6.64159 30.8994C6.45293 30.7904 6.30509 30.625 6.20009 30.3895C6.1059 30.1782 6.09985 29.9527 6.19755 29.6961L6.20069 29.6878L6.20326 29.6794L9.29499 19.5216L9.34879 19.3449L9.19898 19.2367L1.50978 13.6871L1.49944 13.6797L1.48842 13.6733C1.22966 13.5228 1.08956 13.34 1.03348 13.1276C0.970793 12.8884 0.984282 12.6563 1.07512 12.4234L1.07513 12.4234L1.07583 12.4216C1.16894 12.1773 1.30819 11.9885 1.49211 11.8469L1.4929 11.8463C1.66561 11.7123 1.8757 11.6412 2.13679 11.6412H11.8132H12.005L12.0606 11.4575L15.1936 1.09329C15.2923 0.808804 15.4367 0.607528 15.6184 0.471944L15.6184 0.471954L15.6205 0.470417C15.8065 0.328761 16.0151 0.258482 16.2555 0.258482C16.4965 0.258482 16.7055 0.328278 16.8916 0.468506C17.074 0.606047 17.2186 0.808679 17.3174 1.09329L20.4504 11.4575L20.506 11.6412H20.6979H30.3742C30.6375 11.6412 30.8484 11.7125 31.0208 11.8463L31.0216 11.8469C31.2055 11.9885 31.3448 12.1773 31.4379 12.4216L31.4384 12.4229C31.5296 12.6583 31.5428 12.8905 31.4803 13.1274C31.4242 13.3401 31.2837 13.5242 31.0243 13.6765L31.0138 13.6827L31.004 13.6898L23.3148 19.2367L23.1649 19.3448L23.2187 19.5216L26.3104 29.6794L26.3129 29.6876L26.316 29.6956C26.4141 29.9547 26.4075 30.1801 26.3139 30.3889C26.2089 30.6228 26.0608 30.789 25.8709 30.9001C25.6653 31.0205 25.4396 31.0903 25.1905 31.1088C24.9744 31.125 24.7471 31.0627 24.5022 30.8973L16.4148 24.7368Z" fill="#F1EB34" stroke="black" stroke-width="0.516964"/>
</svg>
