<svg width="31" height="30" viewBox="0 0 31 30" fill="none" xmlns="http://www.w3.org/2000/svg">
<g id="&#240;&#159;&#166;&#134; icon &#34;search&#34;">
<path id="Vector" d="M12.0081 3.0003C9.61951 3.0003 7.32879 3.94915 5.63983 5.63811C3.95087 7.32707 3.00202 9.61779 3.00202 12.0063C3.00202 14.3949 3.95087 16.6856 5.63983 18.3746C7.32879 20.0635 9.61951 21.0124 12.0081 21.0124C14.3966 21.0124 16.6873 20.0635 18.3763 18.3746C20.0653 16.6856 21.0141 14.3949 21.0141 12.0063C21.0141 9.61779 20.0653 7.32707 18.3763 5.63811C16.6873 3.94915 14.3966 3.0003 12.0081 3.0003ZM7.41742e-08 12.0063C0.000273673 10.0954 0.456634 8.21202 1.33115 6.51287C2.20567 4.81372 3.47309 3.34782 5.02808 2.23701C6.58307 1.1262 8.38072 0.402554 10.2716 0.126214C12.1625 -0.150126 14.0921 0.0288206 15.8999 0.648183C17.7078 1.26754 19.3417 2.30943 20.6659 3.68726C21.9901 5.06509 22.9663 6.73906 23.5134 8.57005C24.0606 10.401 24.1628 12.3362 23.8117 14.2146C23.4605 16.0931 22.6661 17.8606 21.4944 19.3703L29.5804 27.4562C29.8538 27.7393 30.0051 28.1185 30.0017 28.512C29.9982 28.9056 29.8404 29.2821 29.5621 29.5604C29.2838 29.8387 28.9073 29.9965 28.5138 29.9999C28.1202 30.0034 27.741 29.8521 27.4579 29.5786L19.372 21.4927C17.597 22.8708 15.4709 23.7231 13.2355 23.9528C11.0001 24.1825 8.74516 23.7804 6.72699 22.7921C4.70882 21.8038 3.00846 20.2691 1.81926 18.3624C0.630062 16.4556 -0.000249648 14.2535 7.41742e-08 12.0063Z" fill="#0D0D0D"/>
</g>
</svg>
