<svg width="32" height="32" viewBox="0 0 32 32" fill="none" xmlns="http://www.w3.org/2000/svg">
<path d="M16.307 24.8369L15.9089 24.5338L15.5108 24.8369L7.2927 31.0948C7.1069 31.2197 6.96697 31.2459 6.85678 31.237C6.65847 31.221 6.4849 31.1664 6.32764 31.0756C6.21517 31.0106 6.1181 30.9096 6.04154 30.7379C5.99249 30.6278 5.98119 30.5074 6.04734 30.3336L6.05532 30.3126L6.06186 30.2912L9.20564 19.9624L9.34239 19.5131L8.96158 19.2382L1.14291 13.5952L1.12546 13.5826L1.10722 13.5712C0.919004 13.4532 0.844992 13.3366 0.813626 13.2268C0.770599 13.0762 0.775975 12.9319 0.838028 12.7718C0.911631 12.5818 1.01276 12.4494 1.13602 12.353C1.23031 12.2792 1.35632 12.2287 1.55247 12.2287H11.37H11.8569L11.9986 11.763L15.2003 1.24358C15.287 1.02629 15.3974 0.883924 15.5187 0.788081C15.6298 0.700715 15.7512 0.657085 15.9089 0.657085C16.0664 0.657085 16.1878 0.700619 16.2987 0.787791C16.4202 0.883637 16.5307 1.02607 16.6175 1.24358L19.8192 11.763L19.9609 12.2287H20.4478H30.2653C30.4586 12.2287 30.586 12.2787 30.6838 12.3545C30.8074 12.4505 30.9072 12.5813 30.9785 12.7684C31.0399 12.9294 31.0458 13.0755 31.004 13.2272C30.9701 13.3417 30.8932 13.4588 30.7091 13.5748L30.6917 13.5858L30.675 13.5978L22.8563 19.2381L22.4754 19.513L22.6122 19.9624L25.7559 30.2912L25.7623 30.312L25.77 30.3324C25.8371 30.5098 25.8247 30.6299 25.7769 30.7364C25.7005 30.9067 25.6027 31.0097 25.487 31.0774L25.8189 31.6445L25.487 31.0774C25.3315 31.1684 25.1605 31.2222 24.9651 31.2367C24.852 31.2452 24.71 31.2176 24.5239 31.0939L16.307 24.8369Z" fill="#F1EB34" stroke="black" stroke-width="1.31417"/>
</svg>
